<?xml version="1.0" encoding="utf-8"?>
<!-- Generator: Adobe Illustrator 24.0.0, SVG Export Plug-In . SVG Version: 6.00 Build 0)  -->
<svg version="1.1" id="Capa_1" xmlns="http://www.w3.org/2000/svg" xmlns:xlink="http://www.w3.org/1999/xlink" x="0px" y="0px"
	 viewBox="0 0 67.8 71.41" style="enable-background:new 0 0 67.8 71.41;" xml:space="preserve">
<style type="text/css">
	.st0{fill:#0030D1;stroke:#0030D1;stroke-width:0.5;stroke-miterlimit:10;}
	.st1{fill:#0030D1;}
	.st2{fill:#0030D1;stroke:#FFFFFF;stroke-width:0.75;stroke-miterlimit:10;}
</style>
<g id="Capa_2">
</g>
<g>
	<path class="st1" d="M33.98,1.1c0.51-0.22,1.26,0.24,1.23,0.81c0.06,1.86-0.01,3.72,0.03,5.58c-0.02,0.59,0.11,1.37-0.53,1.7
		c-0.41,0.06-0.93,0.12-1.19-0.27c-0.36-0.3-0.27-0.81-0.29-1.22c0.03-1.86-0.02-3.72,0.01-5.58C33.2,1.64,33.56,1.25,33.98,1.1z"/>
	<path class="st1" d="M23.13,4.05c0.42-0.12,0.99-0.16,1.24,0.29c0.74,1.11,1.22,2.37,1.84,3.54c0.4,0.85,0.97,1.64,1.21,2.56
		c-0.13,0.73-1.1,1.21-1.69,0.68c-0.42-0.42-0.63-0.99-0.9-1.51c-0.63-1.33-1.32-2.62-1.97-3.94C22.6,5.16,22.46,4.3,23.13,4.05z"/>
	<path class="st1" d="M43.69,4.93c0.25-0.43,0.54-1.06,1.15-0.96c0.5-0.04,0.89,0.36,1.06,0.79c-0.06,0.4-0.26,0.77-0.43,1.13
		c-0.71,1.36-1.4,2.72-2.08,4.1c-0.2,0.38-0.39,0.78-0.7,1.09c-0.4,0.45-1.02,0.07-1.51,0.04c-0.02-0.54-0.09-1.12,0.19-1.61
		C42.13,7.98,42.89,6.45,43.69,4.93z"/>
	<path class="st1" d="M15.36,11.37c0.76-0.24,1.38,0.39,1.97,0.76c1.26,0.94,2.67,1.7,3.88,2.71c0.63,0.46,0.28,1.52-0.43,1.67
		c-0.57,0.14-1.05-0.29-1.5-0.57c-1.08-0.77-2.16-1.56-3.27-2.29c-0.5-0.37-1.12-0.74-1.26-1.4C14.86,11.92,15.03,11.55,15.36,11.37
		z"/>
	<path class="st1" d="M52.32,11.37c0.83-0.35,1.54,0.61,1.17,1.36c-0.57,0.71-1.41,1.14-2.14,1.67c-1,0.65-1.92,1.43-2.97,2.02
		c-0.61,0.38-1.52-0.06-1.49-0.8c-0.06-0.74,0.75-1.08,1.24-1.47C49.55,13.25,50.84,12.15,52.32,11.37z"/>
	<path class="st1" d="M33.2,11.86c1.15-0.18,2.3,0.06,3.43,0.21c3.63,0.59,6.87,2.98,8.59,6.21c1.03,1.91,1.64,4.1,1.54,6.27
		c-0.01,0.88-1.48,1.07-1.8,0.29c-0.22-0.52-0.17-1.11-0.24-1.66c-0.37-3.39-2.46-6.58-5.51-8.15c-2.82-1.5-6.33-1.66-9.26-0.38
		c-3.21,1.38-5.61,4.45-6.14,7.91c-0.14,0.75-0.1,1.54-0.35,2.27c-0.33,0.79-1.75,0.56-1.77-0.32c-0.17-2.37,0.6-4.74,1.79-6.77
		C25.53,14.38,29.25,12.12,33.2,11.86z"/>
	<g>
		<path class="st1" d="M3.14,19.8c1.2-0.66,2.75-0.26,3.67,0.69c0.49,0.5,0.76,1.17,1.04,1.8c0.99-0.03,2.07-0.06,2.88,0.61
			c0.93,0.62,1.25,1.72,1.71,2.67c0.73,0.2,1.55,0.15,2.2,0.6c0.82,0.53,1.3,1.44,1.48,2.38c0.66,3.12,1.34,6.24,1.97,9.36
			c0.11,0.98,1.1,1.38,1.79,1.89c2.86,1.99,5.91,3.81,8.31,6.38c2.37,2.61,3.61,6.09,3.77,9.59c0.07,3.92,0,7.83,0.04,11.75
			c0.04,0.77-0.25,1.65-1.01,1.97c-0.58,0.23-1.23,0.13-1.83,0.15c-3.45-0.02-6.9-0.01-10.35,0c-0.52-0.02-1.13,0.02-1.52-0.4
			c-0.43-0.38-0.39-1-0.39-1.52c0.05-1.91,0.32-3.81,0.51-5.71c0.2-1.25,0.19-2.61-0.45-3.73c-1-1.74-2.63-2.96-4.08-4.29
			c-1.17-1.14-2.37-2.27-3.39-3.54c-2.18-2.75-4.3-5.57-5.85-8.73c-0.85-1.73-1.24-3.65-1.24-5.57c-0.24-1.97-0.07-3.95-0.33-5.91
			c-0.08-2.75-0.33-5.49-0.28-8.24C1.77,21.07,2.29,20.17,3.14,19.8z M3.8,22.21c-0.04,1.38,0.04,2.76,0.15,4.14
			c0.09,1.41,0.01,2.82,0.19,4.22c0.12,1.13,0.04,2.28,0.16,3.41c0.19,1.53,0.06,3.09,0.38,4.61c0.5,2.43,2,4.48,3.34,6.51
			c1.67,2.52,3.6,4.86,5.76,6.98c1.82,1.67,3.97,3.15,5.08,5.43c0.7,1.29,0.51,2.8,0.49,4.22c-0.03,1.97-0.35,3.92-0.44,5.89
			c3.65,0.03,7.3,0.03,10.94,0c0.04-3.88,0.01-7.76,0.01-11.65c0.02-2.79-0.95-5.57-2.66-7.77c-1.13-1.52-2.68-2.66-4.2-3.77
			c-3.05-2.23-6.35-4.17-9.06-6.84c-0.61-0.59-1.36-1.24-2.27-1.15c-0.53,0.09-1.19,0.45-1.17,1.07c-0.04,0.77,0.53,1.38,0.98,1.95
			c2.35,2.69,4.62,5.44,6.98,8.12c0.32,0.38,0.68,0.76,0.83,1.24c0.16,0.77-0.82,1.4-1.47,0.98c-0.5-0.36-0.88-0.86-1.28-1.31
			c-2.17-2.6-4.39-5.15-6.55-7.75c-0.54-0.68-1.06-1.4-1.35-2.23c-0.27-0.9,0.03-1.85-0.15-2.76c-0.68-3.16-1.16-6.35-1.79-9.52
			c-0.26-1.26-0.31-2.6-0.9-3.76c-0.28-0.54-0.82-1.08-1.48-1C4.03,21.6,3.77,21.87,3.8,22.21z M8.55,24.25
			C8.53,25.13,8.72,26,8.89,26.86c0.48,2.67,0.95,5.35,1.46,8.01c0.55-0.17,1.1-0.34,1.65-0.48c-0.37-1.92-0.76-3.85-1.08-5.78
			c-0.24-1.14-0.33-2.34-0.84-3.4C9.81,24.6,9.12,24.44,8.55,24.25z M12.9,27.59c0.02,1.54,0.49,3.02,0.68,4.54
			c0.16,1.04,0.22,2.13,0.77,3.06c0.3,0.52,0.8,0.89,1.27,1.26c-0.11-1.74-0.65-3.41-0.95-5.12c-0.21-0.93-0.28-1.89-0.63-2.78
			C13.84,28.05,13.32,27.85,12.9,27.59z"/>
	</g>
	<g>
		<path class="st1" d="M62.42,19.88c1.23-0.73,3.03-0.47,3.82,0.78c0.57,0.82,0.43,1.85,0.42,2.79c-0.05,1.12-0.01,2.24-0.16,3.35
			c-0.14,1.57-0.02,3.16-0.22,4.73c-0.04,2.05-0.16,4.1-0.28,6.14c-0.19,1.77-0.76,3.5-1.64,5.05C62.17,46.43,59.69,50,56.59,53
			c-1.47,1.51-3.23,2.73-4.55,4.39c-0.79,0.99-1.18,2.28-1.08,3.54c0.23,2.39,0.49,4.78,0.64,7.17c0.07,0.77-0.58,1.54-1.37,1.52
			c-3.85,0.04-7.7,0-11.55,0.02c-0.62-0.01-1.36,0.02-1.79-0.51c-0.38-0.37-0.29-0.94-0.32-1.41c0.02-3.98-0.02-7.96,0.01-11.94
			c-0.04-2.51,0.67-5.01,1.93-7.16c0.99-1.72,2.4-3.15,3.91-4.43c2.23-1.78,4.62-3.34,6.97-4.95c0.55-0.35,0.93-0.92,1.03-1.56
			c0.61-3.03,1.3-6.04,1.91-9.07c0.18-0.91,0.63-1.78,1.37-2.35c0.65-0.52,1.51-0.56,2.31-0.64c0.33-1.18,0.93-2.39,2.08-2.96
			c0.74-0.43,1.61-0.39,2.43-0.36C60.93,21.35,61.46,20.36,62.42,19.88z M62.12,24.1c-0.69,3.78-1.35,7.57-2.14,11.33
			c-0.3,1.15,0.19,2.39-0.31,3.5c-0.52,1.2-1.46,2.14-2.29,3.14c-1.9,2.27-3.83,4.51-5.72,6.79c-0.41,0.51-0.92,0.92-1.45,1.3
			c-0.41-0.32-0.96-0.61-1.06-1.17c0.07-0.5,0.44-0.9,0.75-1.28c2.42-2.75,4.74-5.6,7.16-8.35c0.37-0.49,0.87-1,0.85-1.66
			c0.07-0.87-0.96-1.44-1.73-1.23c-1.11,0.26-1.78,1.28-2.62,1.97c-3.23,2.79-6.94,4.95-10.26,7.63c-2.94,2.38-4.78,6.1-4.74,9.9
			c0.01,3.89-0.01,7.77,0.01,11.66c3.65,0,7.31,0,10.96,0c-0.03-1.88-0.36-3.75-0.46-5.63c-0.18-1.35-0.24-2.77,0.31-4.05
			c0.89-2.25,2.88-3.76,4.64-5.32c2.89-2.46,5.16-5.53,7.2-8.7c1.26-1.8,2.38-3.77,2.69-5.97c0.31-2.46,0.28-4.95,0.38-7.43
			c0.22-1.87,0.03-3.76,0.29-5.62c0.05-1.03,0.16-2.08,0.01-3.11c-0.26-0.4-0.82-0.41-1.18-0.15C62.55,22.14,62.29,23.19,62.12,24.1
			z M58.15,25.57c-0.41,1.3-0.54,2.66-0.8,4c-0.26,1.63-0.67,3.23-0.75,4.88c0.51,0.12,1.01,0.27,1.52,0.41
			c0.58-3.17,1.16-6.34,1.71-9.51c0.05-0.35,0.05-0.71,0.01-1.06C59.08,24.36,58.39,24.84,58.15,25.57z M54.28,29.05
			c-0.55,2.5-1.05,5.01-1.58,7.52c0.54-0.45,1.13-0.85,1.58-1.4c0.39-0.95,0.43-2,0.62-3c0.19-1.53,0.67-3.02,0.67-4.58
			C54.94,27.87,54.39,28.35,54.28,29.05z"/>
	</g>
</g>
</svg>
